HIERARCHY
ROOT ui
{
	 OFFSET 0 0 0
	 CHANNELS 3 XPosition YPosition Z Position
	 EndSite
	 {
	 OFFSET 0 -1 0
	 }
}
ROOT li
{
	 OFFSET 0 0 0
	 CHANNELS 3 XPosition YPosition Z Position
	 EndSite
	 {
	 OFFSET 0 -1 0
	 }
}
ROOT ul
{
	 OFFSET 0 0 0
	 CHANNELS 3 XPosition YPosition Z Position
	 EndSite
	 {
	 OFFSET 0 -1 0
	 }
}
ROOT ll
{
	 OFFSET 0 0 0
	 CHANNELS 3 XPosition YPosition Z Position
	 EndSite
	 {
	 OFFSET 0 -1 0
	 }
}
ROOT tt
{
	 OFFSET 0 0 0
	 CHANNELS 3 XPosition YPosition Z Position
	 EndSite
	 {
	 OFFSET 0 -1 0
	 }
}
ROOT tb
{
	 OFFSET 0 0 0
	 CHANNELS 3 XPosition YPosition Z Position
	 EndSite
	 {
	 OFFSET 0 -1 0
	 }
}
ROOT td
{
	 OFFSET 0 0 0
	 CHANNELS 3 XPosition YPosition Z Position
	 EndSite
	 {
	 OFFSET 0 -1 0
	 }
}
ROOT v
{
	 OFFSET 0 0 0
	 CHANNELS 3 XPosition YPosition Z Position
	 EndSite
	 {
	 OFFSET 0 -1 0
	 }
}
ROOT bn
{
	 OFFSET 0 0 0
	 CHANNELS 3 XPosition YPosition Z Position
	 EndSite
	 {
	 OFFSET 0 -1 0
	 }
}
MOTION
Frames: 16
Frame Time: 0.002
-0.009286389350891114	-0.009658334732055664	0		0.5125798950195313	-2.64550244140625	0		-0.973468017578125	0.1658031463623047	0		-0.3582061462402344	-3.271428466796875	0		1.7696083984375	-1.3253673095703125	0		3.274130615234375	-0.8472133178710938	0		4.57582421875	-0.48837646484375	0		5.91710986328125	0.4546978759765625	0		-0.11369352722167969	5.95338037109375	0		
-0.017839866638183592	0.012947174072265625	0		0.5482828979492187	-2.657921142578125	0		-0.9694701538085938	0.16909056091308594	0		-0.48574835205078126	-3.25006591796875	0		1.7217694091796876	-1.31581298828125	0		3.249065673828125	-0.8471575317382812	0		4.575767578125	-0.48787277221679687	0		5.9266123046875	0.4370038146972656	0		-0.09964038848876954	5.9644521484375	0		
-0.0022741661071777343	-0.002021544933319092	0		0.5503051147460938	-2.655557373046875	0		-0.9654638061523437	0.17337437438964845	0		-0.34028561401367186	-3.2740595703125	0		1.732945556640625	-1.305634521484375	0		3.233240966796875	-0.8793307495117187	0		4.568443359375	-0.4982085876464844	0		5.91694140625	0.45575933837890625	0		-0.09985233306884765	5.96484912109375	0		
0.02262395668029785	-0.0022086288928985596	0		0.5623101806640625	-2.653431640625	0		-0.965562744140625	0.17374609375	0		-0.49448056030273435	-3.236090576171875	0		1.705187255859375	-1.29155908203125	0		3.24390673828125	-0.8901207275390625	0		4.5579677734375	-0.5144814453125	0		5.91683642578125	0.45627911376953123	0		-0.11432708740234375	5.95456689453125	0		
-0.018124914169311522	0.014120332717895508	0		0.5342894287109375	-2.651388671875	0		-0.9697652587890625	0.17020240783691407	0		-0.36390225219726563	-3.253748046875	0		1.6842518310546875	-1.284655517578125	0		3.1906005859375	-0.8984392700195313	0		4.557384765625	-0.534996826171875	0		5.91671923828125	0.45678671264648435	0		-0.11455985260009766	5.954947265625	0		
0.01216922378540039	-0.011221055030822755	0		0.5429449462890625	-2.663213134765625	0		-0.9698875732421876	0.17055213928222657	0		-0.4817607421875	-3.2436572265625	0		1.6663492431640625	-1.2758369140625	0		3.193059814453125	-0.9170685424804688	0		4.5500244140625	-0.5453688354492188	0		5.92138134765625	0.44816436767578127	0		-0.11480074310302735	5.955314453125	0		
-0.0027253239154815673	-5.245879888534546E-4	0		0.54491357421875	-2.66089697265625	0		-0.9659295043945313	0.17479144287109374	0		-0.3312366027832031	-3.262801513671875	0		1.6683134765625	-1.272498779296875	0		3.18239599609375	-0.9404154663085937	0		4.541560546875	-0.5597374267578125	0		5.926033203125	0.4395208129882813	0		-0.09789163208007813	5.96226953125	0		
-0.0028663809299468994	-1.94023996591568E-4	0		0.5479379272460938	-2.655626708984375	0		-0.9609828491210938	0.178987060546875	0		-0.4665168151855469	-3.22634423828125	0		1.6470341796875	-1.2356378173828124	0		3.15458056640625	-0.9263807983398438	0		4.5492890625	-0.56550341796875	0		5.92527685546875	0.4569830322265625	0		-0.10007660675048828	5.9656435546875	0		
-0.0030184140205383302	1.1163300275802613E-4	0		0.5426737670898437	-2.66219384765625	0		-0.9662291259765625	0.175391845703125	0		-0.34980313110351563	-3.235745849609375	0		1.599078857421875	-1.227196044921875	0		3.11580908203125	-0.95313330078125	0		4.53564306640625	-0.586809326171875	0		5.9167490234375	0.44158502197265626	0		-0.11556356048583985	5.95629638671875	0		
-0.007248885154724121	-0.0025177149772644043	0		0.5405108642578125	-2.6638603515625	0		-0.9663944091796876	0.1756531524658203	0		-0.4774384765625	-3.213526611328125	0		1.5921236572265625	-1.2187320556640624	0		3.10057470703125	-0.9564559936523438	0		4.511451171875	-0.5879009399414062	0		5.91657958984375	0.44196267700195313	0		-0.1290998992919922	5.944875	0		
-0.007419734954833984	-0.002271214008331299	0		0.5372896728515625	-2.66753515625	0		-0.9665679931640625	0.17588484191894532	0		-0.4765369873046875	-3.212310791015625	0		1.5424459228515626	-1.197313720703125	0		3.09521240234375	-0.9650438232421875	0		4.510828125	-0.607579345703125	0		5.92119287109375	0.433187744140625	0		-0.129362548828125	5.94511962890625	0		
-0.007595900058746338	-0.002058280944824219	0		0.5261531982421875	-2.667061279296875	0		-0.9667466430664062	0.17608453369140625	0		-0.5034082641601563	-3.2004853515625	0		1.54574609375	-1.17715380859375	0		3.07623876953125	-0.9563525390625	0		4.4907578125	-0.6028443603515625	0		5.9245859375	0.45840676879882813	0		-0.11537113189697265	5.956005859375	0		
-0.0037043850421905515	0.0010261219739913941	0		0.5421428833007812	-2.66124755859375	0		-0.9618345336914063	0.18013404846191405	0		-0.4752311706542969	-3.18696240234375	0		1.49698828125	-1.158833984375	0		3.0556416015625	-0.97467236328125	0		4.47756884765625	-0.6033130493164063	0		5.920220703125	0.45075006103515625	0		-0.11561970520019531	5.956181640625	0		
-0.0038746800422668455	0.0011660480499267579	0		0.53995458984375	-2.663055419921875	0		-0.967097412109375	0.17638018798828126	0		-0.47227719116210937	-3.1828974609375	0		1.497290283203125	-1.138683837890625	0		3.0486904296875	-0.9653421020507813	0		4.4738076171875	-0.6290508422851563	0		5.9110712890625	0.45215814208984373	0		-0.11585162353515625	5.9563203125	0		
-0.011190000534057618	-0.005570244789123535	0		0.5875785522460938	-2.674051513671875	0		-0.9772063598632813	0.17870228576660158	0		-0.4831500854492187	-3.171550537109375	0		1.457591552734375	-1.118655029296875	0		3.022181396484375	-0.9806127319335938	0		4.4664052734375	-0.6397477416992188	0		5.91570263671875	0.4431969909667969	0		-0.13126185607910157	5.947767578125	0		
-0.008231254577636718	-0.0015801039934158325	0		0.5386611938476562	-2.6648623046875	0		-0.9673887329101563	0.17652645874023437	0		-0.4791470947265625	-3.166586669921875	0		1.4677630615234376	-1.1058182373046874	0		2.984318603515625	-0.968660888671875	0		4.4511201171875	-0.646310302734375	0		5.9245419921875	0.4420907287597656	0		-0.13048101806640625	5.9458046875	0		
